<svg width="70" height="70" viewBox="0 0 70 70" fill="none" xmlns="http://www.w3.org/2000/svg">
<path d="M31.9667 61.25C31.2881 61.25 30.6999 61.0274 30.2021 60.5821C29.7024 60.1368 29.3923 59.5817 29.2717 58.9167L28.5046 52.815C27.5732 52.5331 26.566 52.0917 25.483 51.4908C24.4018 50.8881 23.4812 50.2425 22.7209 49.5542L17.1355 51.9575C16.5191 52.2297 15.893 52.2589 15.2571 52.045C14.6213 51.8311 14.1313 51.4277 13.7871 50.8346L10.64 45.4125C10.2959 44.8195 10.1948 44.1992 10.3367 43.5517C10.4787 42.9042 10.817 42.3733 11.3517 41.9592L16.2284 38.3133C16.1409 37.7845 16.0699 37.241 16.0155 36.6829C15.9571 36.1229 15.928 35.5795 15.928 35.0525C15.928 34.5625 15.9571 34.0472 16.0155 33.5067C16.0699 32.9661 16.1409 32.3575 16.2284 31.6808L11.3517 28.035C10.817 27.6208 10.4884 27.0813 10.3659 26.4163C10.2434 25.7513 10.3532 25.1213 10.6955 24.5263L13.7871 19.2763C14.1313 18.7182 14.6213 18.3235 15.2571 18.0921C15.893 17.8607 16.5191 17.8811 17.1355 18.1533L22.6655 20.4983C23.5366 19.7731 24.4796 19.1188 25.4946 18.5354C26.5057 17.9521 27.4906 17.501 28.4492 17.1821L29.2746 11.0804C29.3932 10.4154 29.7024 9.86029 30.2021 9.41501C30.7018 8.96973 31.29 8.74807 31.9667 8.75001H38.0334C38.712 8.75001 39.3002 8.97265 39.798 9.41793C40.2977 9.86321 40.6078 10.4183 40.7284 11.0833L41.4955 17.2433C42.6135 17.6361 43.6013 18.0863 44.4588 18.5938C45.3163 19.1013 46.2 19.7371 47.11 20.5013L52.92 18.1563C53.5384 17.884 54.1655 17.8636 54.8013 18.095C55.4371 18.3264 55.9262 18.7211 56.2684 19.2792L59.36 24.5846C59.7042 25.1796 59.8053 25.7999 59.6634 26.4454C59.5214 27.091 59.1831 27.6228 58.6484 28.0408L53.55 31.85C53.7095 32.4528 53.7989 33.006 53.8184 33.5096C53.8378 34.0132 53.8475 34.509 53.8475 34.9971C53.8475 35.4502 53.8281 35.9275 53.7892 36.4292C53.7523 36.9328 53.6667 37.5414 53.5325 38.255L58.4617 41.9592C58.9964 42.3733 59.3445 42.9042 59.5059 43.5517C59.6673 44.1992 59.5759 44.8195 59.2317 45.4125L56.1225 50.7763C55.7803 51.3713 55.2816 51.7747 54.6263 51.9867C53.971 52.2006 53.3352 52.1714 52.7188 51.8992L47.11 49.4958C46.202 50.26 45.2881 50.9143 44.3684 51.4588C43.4487 52.0032 42.491 52.4358 41.4955 52.7567L40.7255 58.9138C40.6068 59.5788 40.2977 60.1339 39.798 60.5792C39.2982 61.0245 38.71 61.2481 38.0334 61.25H31.9667ZM32.0834 58.3333H37.7884L38.8646 50.435C40.3346 50.0461 41.6568 49.5124 42.8313 48.8338C44.0096 48.1552 45.2074 47.2257 46.4246 46.0454L53.7017 49.1458L56.6009 44.1875L50.2163 39.3925C50.4593 38.5622 50.6207 37.7981 50.7005 37.1C50.7782 36.4039 50.8171 35.7039 50.8171 35C50.8171 34.2611 50.7782 33.5611 50.7005 32.9C50.6227 32.2389 50.4613 31.5127 50.2163 30.7213L56.7117 25.8125L53.8125 20.8542L46.3692 23.975C45.4864 23.0047 44.3266 22.0957 42.8896 21.2479C41.4507 20.4021 40.0896 19.8411 38.8063 19.565L37.9167 11.6667H32.1009L31.1909 19.5096C29.7209 19.8227 28.3695 20.3282 27.1367 21.0263C25.9059 21.7224 24.6809 22.68 23.4617 23.8992L16.1875 20.8542L13.2884 25.8125L19.6146 30.5375C19.3716 31.1908 19.2014 31.9006 19.1042 32.6667C19.007 33.4328 18.9584 34.23 18.9584 35.0583C18.9584 35.7972 19.007 36.5313 19.1042 37.2604C19.2014 37.9896 19.3531 38.6993 19.5592 39.3896L13.2884 44.1875L16.1875 49.1458L23.4063 46.0833C24.5516 47.2383 25.7396 48.1649 26.9705 48.8629C28.2032 49.561 29.5916 50.1045 31.1355 50.4933L32.0834 58.3333ZM34.9213 42.2917C36.9552 42.2917 38.6789 41.5849 40.0925 40.1713C41.5062 38.7577 42.213 37.0339 42.213 35C42.213 32.9661 41.5062 31.2424 40.0925 29.8288C38.6789 28.4152 36.9552 27.7083 34.9213 27.7083C32.8757 27.7083 31.1491 28.4152 29.7413 29.8288C28.3335 31.2424 27.6296 32.9661 27.6296 35C27.6296 37.0339 28.3335 38.7577 29.7413 40.1713C31.1491 41.5849 32.8757 42.2917 34.9213 42.2917Z" fill="#0058DD"/>
</svg>
